<svg width="176" height="223" viewBox="0 0 176 223" fill="none" xmlns="http://www.w3.org/2000/svg">
    <mask id="mask0_236_9" style="mask-type:luminance" maskUnits="userSpaceOnUse" x="0" y="0" width="176" height="223">
        <path d="M0 0H176V223H0V0Z" fill="white"/>
    </mask>
    <g mask="url(#mask0_236_9)">
        <path d="M7.2466 223C6.9246 222.422 6.7426 221.783 6.7426 221.125C6.7426 218.302 9.9196 216.018 13.8336 216.018C17.7476 216.018 20.9236 218.302 20.9236 221.125C20.9236 221.783 20.7416 222.422 20.4196 223H28.3266C28.1096 222.511 27.9876 221.983 27.9876 221.444C27.9876 218.621 31.1636 216.337 35.0776 216.337C38.9916 216.337 42.1686 218.621 42.1686 221.444C42.1686 221.993 42.0466 222.511 41.8296 223H49.4586C49.3196 222.601 49.2416 222.182 49.2416 221.753C49.2416 218.931 52.4176 216.647 56.3316 216.647C60.2456 216.647 63.4216 218.931 63.4216 221.753C63.4216 222.182 63.3436 222.601 63.2046 223H70.6166C70.5386 222.701 70.4946 222.392 70.4946 222.072C70.4946 219.25 73.6716 216.966 77.5856 216.966C81.4996 216.966 84.6756 219.25 84.6756 222.072C84.6756 222.392 84.6326 222.701 84.5546 223H91.8006C91.7656 222.801 91.7486 222.591 91.7486 222.382C91.7486 219.559 94.9246 217.275 98.8386 217.275C102.753 217.275 105.93 219.559 105.93 222.382C105.93 222.591 105.904 222.791 105.878 223H113.02C113.02 222.9 113.003 222.801 113.003 222.701C113.003 219.878 116.179 217.594 120.093 217.594C124.007 217.594 127.183 219.878 127.183 222.701C127.183 222.801 127.175 222.9 127.166 223H134.256C134.274 220.187 137.433 217.913 141.338 217.913C145.243 217.913 148.411 220.187 148.42 223H155.51C155.753 220.337 158.817 218.222 162.574 218.222C166.332 218.222 169.396 220.327 169.639 223H175.948V141.821H0.0166016V223H7.25461H7.2466Z" fill="#06348A"/>
        <path d="M165.647 0H10.3008C4.61678 0 0.00878906 5.2962 0.00878906 11.8292V138.121H175.939V11.8292C175.939 5.2962 171.322 0 165.647 0Z" fill="#06348A"/>
        <path d="M176 140.006H175.132" stroke="#06348A" stroke-miterlimit="10"/>
        <path d="M173.405 140.006H1.76172" stroke="#06348A" stroke-miterlimit="10" stroke-dasharray="1.99 1.99"/>
        <path d="M0.903152 140.006H0.0351562" stroke="#06348A" stroke-miterlimit="10"/>
    </g>
</svg>
